<?xml version="1.0" standalone="no"?>
<!DOCTYPE svg PUBLIC "-//W3C//DTD SVG 20010904//EN"
 "http://www.w3.org/TR/2001/REC-SVG-20010904/DTD/svg10.dtd">
<svg version="1.0" xmlns="http://www.w3.org/2000/svg"
 width="595.000000pt" height="595.000000pt" viewBox="0 0 595.000000 595.000000"
 preserveAspectRatio="xMidYMid meet">
<metadata>
Created by potrace 1.11, written by Peter Selinger 2001-2013
</metadata>
<g transform="translate(0.000000,595.000000) scale(0.100000,-0.100000)"
fill="#000000" stroke="none">
<path d="M1708 5930 c-101 -64 -247 -202 -324 -305 -102 -139 -188 -324 -229
-494 -34 -141 -36 -158 -40 -366 -4 -189 4 -289 40 -480 37 -205 56 -317 63
-375 9 -72 8 -272 -1 -333 -10 -64 -57 -184 -96 -245 -65 -101 -181 -178 -344
-227 l-88 -26 3 -106 3 -106 61 -17 c114 -31 228 -95 303 -169 120 -120 165
-245 166 -461 0 -137 -4 -176 -30 -330 -15 -87 -17 -97 -35 -185 -5 -27 -12
-72 -16 -100 -3 -27 -12 -84 -19 -125 -13 -73 -15 -459 -3 -505 5 -19 21 -118
19 -122 0 -2 6 -21 14 -43 8 -22 14 -44 15 -48 1 -25 50 -151 88 -227 91 -181
208 -326 361 -450 103 -82 91 -79 331 -80 203 -1 229 2 230 27 0 4 -39 34 -88
67 -225 154 -406 397 -487 651 -43 140 -57 235 -60 425 -3 205 2 264 51 540
14 77 27 160 30 185 3 25 7 51 10 58 8 26 18 177 17 262 -1 140 -18 231 -62
340 -86 211 -259 352 -495 405 -26 5 -17 11 74 41 128 43 206 89 284 170 201
205 245 494 152 1004 -3 14 -12 68 -21 120 -9 52 -18 109 -21 125 -17 99 -21
180 -19 345 2 102 5 195 8 206 3 12 8 39 11 60 10 61 45 182 73 252 28 72 101
205 114 210 5 2 9 8 9 13 0 13 93 129 151 190 56 57 138 124 211 171 41 27 55
42 52 55 -5 17 -22 18 -224 18 -176 0 -223 -3 -242 -15z"/>
<path d="M3779 5939 c-19 -11 3 -38 67 -80 59 -38 191 -159 239 -219 145 -181
251 -408 295 -628 29 -149 32 -444 6 -592 -3 -14 -7 -45 -10 -70 -7 -53 -12
-80 -31 -180 -8 -41 -17 -92 -20 -112 -3 -21 -7 -53 -10 -70 -25 -156 -31
-346 -14 -433 6 -27 12 -60 15 -73 30 -148 157 -321 297 -404 64 -39 219 -98
254 -98 24 0 10 -10 -23 -16 -117 -21 -273 -104 -355 -189 -80 -83 -154 -214
-173 -307 -3 -13 -9 -45 -15 -73 -23 -117 -10 -304 40 -585 50 -286 62 -388
63 -555 0 -129 -8 -238 -23 -307 -6 -24 -12 -56 -15 -72 -3 -15 -17 -65 -32
-110 -87 -264 -276 -528 -481 -670 -126 -88 -121 -91 138 -92 l214 -1 55 35
c303 193 524 577 567 987 11 102 8 346 -6 450 -7 50 -29 187 -51 305 -44 249
-54 338 -52 471 3 175 55 319 153 424 84 89 184 143 344 184 l40 10 0 106 0
105 -40 11 c-251 68 -400 195 -464 399 -35 112 -45 261 -26 395 3 22 8 60 11
85 3 25 18 113 33 195 16 83 32 175 36 205 4 30 9 64 11 75 23 113 23 416 1
560 -35 223 -133 459 -261 630 -48 64 -217 226 -281 270 l-58 40 -214 0 c-118
0 -219 -2 -224 -6z"/>
</g>
</svg>
